<svg width="820" height="312" viewBox="0 0 820 312" fill="none" xmlns="http://www.w3.org/2000/svg">
<rect width="820" height="312" fill="#181818"/>
<path d="M331.705 180.496L319.417 214H311.257L298.969 180.496H306.169L315.385 207.136L324.553 180.496H331.705ZM360.454 200.128C360.454 201.088 360.39 201.952 360.262 202.72H340.822C340.982 204.64 341.654 206.144 342.838 207.232C344.022 208.32 345.478 208.864 347.206 208.864C349.702 208.864 351.478 207.792 352.534 205.648H359.782C359.014 208.208 357.542 210.32 355.366 211.984C353.19 213.616 350.518 214.432 347.35 214.432C344.79 214.432 342.486 213.872 340.438 212.752C338.422 211.6 336.838 209.984 335.686 207.904C334.566 205.824 334.006 203.424 334.006 200.704C334.006 197.952 334.566 195.536 335.686 193.456C336.806 191.376 338.374 189.776 340.39 188.656C342.406 187.536 344.726 186.976 347.35 186.976C349.878 186.976 352.134 187.52 354.118 188.608C356.134 189.696 357.686 191.248 358.774 193.264C359.894 195.248 360.454 197.536 360.454 200.128ZM353.494 198.208C353.462 196.48 352.838 195.104 351.622 194.08C350.406 193.024 348.918 192.496 347.158 192.496C345.494 192.496 344.086 193.008 342.934 194.032C341.814 195.024 341.126 196.416 340.87 198.208H353.494ZM363.631 200.704C363.631 197.952 364.191 195.552 365.311 193.504C366.431 191.424 367.983 189.824 369.967 188.704C371.951 187.552 374.223 186.976 376.783 186.976C380.079 186.976 382.799 187.808 384.943 189.472C387.119 191.104 388.575 193.408 389.311 196.384H382.063C381.679 195.232 381.023 194.336 380.095 193.696C379.199 193.024 378.079 192.688 376.735 192.688C374.815 192.688 373.295 193.392 372.175 194.8C371.055 196.176 370.495 198.144 370.495 200.704C370.495 203.232 371.055 205.2 372.175 206.608C373.295 207.984 374.815 208.672 376.735 208.672C379.455 208.672 381.231 207.456 382.063 205.024H389.311C388.575 207.904 387.119 210.192 384.943 211.888C382.767 213.584 380.047 214.432 376.783 214.432C374.223 214.432 371.951 213.872 369.967 212.752C367.983 211.6 366.431 210 365.311 207.952C364.191 205.872 363.631 203.456 363.631 200.704ZM402.058 192.928V205.792C402.058 206.688 402.266 207.344 402.682 207.76C403.13 208.144 403.866 208.336 404.89 208.336H408.01V214H403.786C398.122 214 395.29 211.248 395.29 205.744V192.928H392.122V187.408H395.29V180.832H402.058V187.408H408.01V192.928H402.058ZM424.651 214.432C422.091 214.432 419.787 213.872 417.739 212.752C415.691 211.6 414.075 209.984 412.891 207.904C411.739 205.824 411.163 203.424 411.163 200.704C411.163 197.984 411.755 195.584 412.939 193.504C414.155 191.424 415.803 189.824 417.883 188.704C419.963 187.552 422.283 186.976 424.843 186.976C427.403 186.976 429.723 187.552 431.803 188.704C433.883 189.824 435.515 191.424 436.699 193.504C437.915 195.584 438.523 197.984 438.523 200.704C438.523 203.424 437.899 205.824 436.651 207.904C435.435 209.984 433.771 211.6 431.659 212.752C429.579 213.872 427.243 214.432 424.651 214.432ZM424.651 208.576C425.867 208.576 427.003 208.288 428.059 207.712C429.147 207.104 430.011 206.208 430.651 205.024C431.291 203.84 431.611 202.4 431.611 200.704C431.611 198.176 430.939 196.24 429.595 194.896C428.283 193.52 426.667 192.832 424.747 192.832C422.827 192.832 421.211 193.52 419.899 194.896C418.619 196.24 417.979 198.176 417.979 200.704C417.979 203.232 418.603 205.184 419.851 206.56C421.131 207.904 422.731 208.576 424.651 208.576ZM450.173 191.536C451.037 190.128 452.157 189.024 453.533 188.224C454.941 187.424 456.541 187.024 458.333 187.024V194.08H456.557C454.445 194.08 452.845 194.576 451.757 195.568C450.701 196.56 450.173 198.288 450.173 200.752V214H443.453V187.408H450.173V191.536ZM487.579 200.128C487.579 201.088 487.515 201.952 487.387 202.72H467.947C468.107 204.64 468.779 206.144 469.963 207.232C471.147 208.32 472.603 208.864 474.331 208.864C476.827 208.864 478.603 207.792 479.659 205.648H486.907C486.139 208.208 484.667 210.32 482.491 211.984C480.315 213.616 477.643 214.432 474.475 214.432C471.915 214.432 469.611 213.872 467.563 212.752C465.547 211.6 463.963 209.984 462.811 207.904C461.691 205.824 461.131 203.424 461.131 200.704C461.131 197.952 461.691 195.536 462.811 193.456C463.931 191.376 465.499 189.776 467.515 188.656C469.531 187.536 471.851 186.976 474.475 186.976C477.003 186.976 479.259 187.52 481.243 188.608C483.259 189.696 484.811 191.248 485.899 193.264C487.019 195.248 487.579 197.536 487.579 200.128ZM480.619 198.208C480.587 196.48 479.963 195.104 478.747 194.08C477.531 193.024 476.043 192.496 474.283 192.496C472.619 192.496 471.211 193.008 470.059 194.032C468.939 195.024 468.251 196.416 467.995 198.208H480.619ZM490.756 200.608C490.756 197.92 491.284 195.536 492.34 193.456C493.428 191.376 494.9 189.776 496.756 188.656C498.612 187.536 500.676 186.976 502.948 186.976C504.676 186.976 506.324 187.36 507.892 188.128C509.46 188.864 510.708 189.856 511.636 191.104V178.48H518.452V214H511.636V210.064C510.804 211.376 509.636 212.432 508.132 213.232C506.628 214.032 504.884 214.432 502.9 214.432C500.66 214.432 498.612 213.856 496.756 212.704C494.9 211.552 493.428 209.936 492.34 207.856C491.284 205.744 490.756 203.328 490.756 200.608ZM511.684 200.704C511.684 199.072 511.364 197.68 510.724 196.528C510.084 195.344 509.22 194.448 508.132 193.84C507.044 193.2 505.876 192.88 504.628 192.88C503.38 192.88 502.228 193.184 501.172 193.792C500.116 194.4 499.252 195.296 498.58 196.48C497.94 197.632 497.62 199.008 497.62 200.608C497.62 202.208 497.94 203.616 498.58 204.832C499.252 206.016 500.116 206.928 501.172 207.568C502.26 208.208 503.412 208.528 504.628 208.528C505.876 208.528 507.044 208.224 508.132 207.616C509.22 206.976 510.084 206.08 510.724 204.928C511.364 203.744 511.684 202.336 511.684 200.704Z" fill="white"/>
<path d="M284.149 241L282.905 237.821H278.899L277.669 241H276.493L280.444 230.965H281.422L285.353 241H284.149ZM282.543 236.775L281.381 233.679C281.23 233.287 281.076 232.806 280.916 232.236C280.816 232.674 280.672 233.155 280.485 233.679L279.31 236.775H282.543ZM296.242 241H289.673V240.022L292.305 237.377C293.107 236.566 293.635 235.987 293.891 235.641C294.146 235.294 294.337 234.957 294.465 234.629C294.592 234.301 294.656 233.948 294.656 233.569C294.656 233.036 294.494 232.615 294.171 232.305C293.847 231.99 293.398 231.833 292.824 231.833C292.41 231.833 292.015 231.901 291.642 232.038C291.272 232.175 290.86 232.423 290.404 232.783L289.803 232.011C290.723 231.245 291.726 230.862 292.811 230.862C293.749 230.862 294.485 231.104 295.019 231.587C295.552 232.065 295.818 232.71 295.818 233.521C295.818 234.155 295.641 234.782 295.285 235.401C294.93 236.021 294.264 236.805 293.289 237.753L291.102 239.893V239.947H296.242V241ZM306.448 241L306.223 239.934H306.168C305.794 240.403 305.421 240.722 305.047 240.891C304.678 241.055 304.215 241.137 303.659 241.137C302.916 241.137 302.333 240.945 301.909 240.562C301.49 240.18 301.28 239.635 301.28 238.929C301.28 237.416 302.49 236.623 304.91 236.55L306.182 236.509V236.044C306.182 235.456 306.054 235.023 305.799 234.745C305.548 234.463 305.145 234.321 304.589 234.321C303.965 234.321 303.258 234.513 302.47 234.896L302.121 234.027C302.49 233.827 302.894 233.67 303.331 233.556C303.773 233.442 304.215 233.385 304.657 233.385C305.55 233.385 306.211 233.583 306.64 233.979C307.073 234.376 307.289 235.012 307.289 235.887V241H306.448ZM303.885 240.2C304.591 240.2 305.145 240.007 305.546 239.619C305.951 239.232 306.154 238.689 306.154 237.992V237.315L305.02 237.363C304.117 237.395 303.465 237.536 303.064 237.787C302.668 238.033 302.47 238.418 302.47 238.942C302.47 239.353 302.593 239.665 302.839 239.879C303.09 240.093 303.438 240.2 303.885 240.2ZM314.761 241V236.153C314.761 235.543 314.622 235.087 314.344 234.786C314.066 234.485 313.631 234.335 313.038 234.335C312.254 234.335 311.68 234.547 311.315 234.971C310.951 235.395 310.769 236.094 310.769 237.069V241H309.634V233.508H310.557L310.741 234.533H310.796C311.028 234.164 311.354 233.879 311.773 233.679C312.193 233.474 312.66 233.371 313.175 233.371C314.077 233.371 314.756 233.59 315.212 234.027C315.668 234.46 315.896 235.155 315.896 236.112V241H314.761ZM323.333 239.995H323.271C322.747 240.756 321.964 241.137 320.92 241.137C319.94 241.137 319.177 240.802 318.63 240.132C318.088 239.462 317.816 238.509 317.816 237.274C317.816 236.039 318.09 235.08 318.637 234.396C319.184 233.713 319.945 233.371 320.92 233.371C321.936 233.371 322.715 233.74 323.258 234.479H323.347L323.299 233.938L323.271 233.412V230.363H324.406V241H323.483L323.333 239.995ZM321.063 240.187C321.838 240.187 322.399 239.977 322.745 239.558C323.096 239.134 323.271 238.452 323.271 237.514V237.274C323.271 236.213 323.094 235.456 322.738 235.005C322.387 234.549 321.825 234.321 321.05 234.321C320.384 234.321 319.874 234.581 319.519 235.101C319.168 235.616 318.992 236.345 318.992 237.288C318.992 238.245 319.168 238.967 319.519 239.455C319.869 239.943 320.384 240.187 321.063 240.187ZM336.13 233.357C336.13 233.995 335.95 234.517 335.59 234.923C335.234 235.328 334.729 235.6 334.072 235.736V235.791C334.874 235.891 335.469 236.146 335.856 236.557C336.244 236.967 336.438 237.505 336.438 238.17C336.438 239.122 336.107 239.856 335.446 240.371C334.785 240.882 333.847 241.137 332.63 241.137C332.101 241.137 331.616 241.096 331.174 241.014C330.736 240.936 330.31 240.797 329.896 240.597V239.517C330.328 239.731 330.789 239.895 331.276 240.009C331.769 240.118 332.233 240.173 332.671 240.173C334.398 240.173 335.262 239.496 335.262 238.143C335.262 236.93 334.309 236.324 332.404 236.324H331.42V235.347H332.418C333.197 235.347 333.815 235.176 334.271 234.834C334.726 234.488 334.954 234.009 334.954 233.398C334.954 232.911 334.785 232.528 334.448 232.25C334.116 231.972 333.662 231.833 333.088 231.833C332.65 231.833 332.238 231.892 331.851 232.011C331.463 232.129 331.021 232.348 330.524 232.667L329.95 231.901C330.36 231.578 330.832 231.325 331.365 231.143C331.903 230.956 332.468 230.862 333.061 230.862C334.031 230.862 334.785 231.086 335.323 231.532C335.861 231.974 336.13 232.583 336.13 233.357ZM346.616 235.907C346.616 237.557 346.167 238.819 345.27 239.694C344.376 240.565 343.089 241 341.407 241H338.639V231.006H341.701C343.255 231.006 344.463 231.437 345.324 232.298C346.186 233.159 346.616 234.362 346.616 235.907ZM345.386 235.948C345.386 234.645 345.058 233.663 344.401 233.002C343.75 232.341 342.779 232.011 341.489 232.011H339.801V239.995H341.216C342.601 239.995 343.643 239.656 344.34 238.977C345.037 238.293 345.386 237.284 345.386 235.948ZM351.032 243.632C350.604 243.632 350.267 243.57 350.021 243.447V242.456C350.344 242.547 350.681 242.593 351.032 242.593C351.483 242.593 351.825 242.456 352.058 242.183C352.295 241.909 352.413 241.515 352.413 241V231.006H353.575V240.904C353.575 241.77 353.356 242.44 352.919 242.914C352.481 243.393 351.853 243.632 351.032 243.632ZM360.671 241L360.445 239.934H360.391C360.017 240.403 359.643 240.722 359.27 240.891C358.9 241.055 358.438 241.137 357.882 241.137C357.139 241.137 356.556 240.945 356.132 240.562C355.713 240.18 355.503 239.635 355.503 238.929C355.503 237.416 356.713 236.623 359.133 236.55L360.404 236.509V236.044C360.404 235.456 360.277 235.023 360.021 234.745C359.771 234.463 359.368 234.321 358.812 234.321C358.187 234.321 357.481 234.513 356.692 234.896L356.344 234.027C356.713 233.827 357.116 233.67 357.554 233.556C357.996 233.442 358.438 233.385 358.88 233.385C359.773 233.385 360.434 233.583 360.862 233.979C361.295 234.376 361.512 235.012 361.512 235.887V241H360.671ZM358.107 240.2C358.814 240.2 359.368 240.007 359.769 239.619C360.174 239.232 360.377 238.689 360.377 237.992V237.315L359.242 237.363C358.34 237.395 357.688 237.536 357.287 237.787C356.891 238.033 356.692 238.418 356.692 238.942C356.692 239.353 356.815 239.665 357.062 239.879C357.312 240.093 357.661 240.2 358.107 240.2ZM365.497 241L362.653 233.508H363.87L365.483 237.951C365.848 238.99 366.062 239.665 366.126 239.975H366.181C366.231 239.733 366.388 239.234 366.652 238.478C366.921 237.716 367.521 236.06 368.45 233.508H369.667L366.823 241H365.497ZM375.478 241L375.252 239.934H375.197C374.824 240.403 374.45 240.722 374.076 240.891C373.707 241.055 373.244 241.137 372.688 241.137C371.946 241.137 371.362 240.945 370.938 240.562C370.519 240.18 370.31 239.635 370.31 238.929C370.31 237.416 371.52 236.623 373.939 236.55L375.211 236.509V236.044C375.211 235.456 375.083 235.023 374.828 234.745C374.577 234.463 374.174 234.321 373.618 234.321C372.994 234.321 372.287 234.513 371.499 234.896L371.15 234.027C371.52 233.827 371.923 233.67 372.36 233.556C372.802 233.442 373.244 233.385 373.687 233.385C374.58 233.385 375.241 233.583 375.669 233.979C376.102 234.376 376.318 235.012 376.318 235.887V241H375.478ZM372.914 240.2C373.62 240.2 374.174 240.007 374.575 239.619C374.981 239.232 375.184 238.689 375.184 237.992V237.315L374.049 237.363C373.146 237.395 372.495 237.536 372.094 237.787C371.697 238.033 371.499 238.418 371.499 238.942C371.499 239.353 371.622 239.665 371.868 239.879C372.119 240.093 372.467 240.2 372.914 240.2ZM384.474 238.341C384.474 239.22 384.155 239.906 383.517 240.398C382.879 240.891 382.013 241.137 380.919 241.137C379.734 241.137 378.823 240.984 378.185 240.679V239.558C378.595 239.731 379.041 239.868 379.524 239.968C380.007 240.068 380.486 240.118 380.96 240.118C381.735 240.118 382.318 239.972 382.71 239.681C383.102 239.384 383.298 238.974 383.298 238.45C383.298 238.104 383.227 237.821 383.086 237.603C382.949 237.379 382.717 237.174 382.389 236.987C382.065 236.8 381.571 236.589 380.905 236.352C379.976 236.019 379.31 235.625 378.909 235.169C378.513 234.713 378.314 234.118 378.314 233.385C378.314 232.615 378.604 232.002 379.183 231.546C379.761 231.09 380.527 230.862 381.479 230.862C382.473 230.862 383.387 231.045 384.221 231.409L383.858 232.421C383.034 232.075 382.231 231.901 381.452 231.901C380.837 231.901 380.356 232.034 380.01 232.298C379.663 232.562 379.49 232.929 379.49 233.398C379.49 233.745 379.554 234.03 379.682 234.253C379.809 234.472 380.023 234.674 380.324 234.861C380.63 235.044 381.094 235.246 381.719 235.47C382.767 235.843 383.487 236.244 383.879 236.673C384.275 237.101 384.474 237.657 384.474 238.341ZM389.341 241.137C388.256 241.137 387.415 240.804 386.818 240.139C386.226 239.469 385.93 238.523 385.93 237.302C385.93 236.049 386.23 235.08 386.832 234.396C387.438 233.713 388.299 233.371 389.416 233.371C389.776 233.371 390.136 233.41 390.496 233.487C390.856 233.565 391.139 233.656 391.344 233.761L390.995 234.725C390.744 234.624 390.471 234.542 390.175 234.479C389.879 234.41 389.617 234.376 389.389 234.376C387.867 234.376 387.105 235.347 387.105 237.288C387.105 238.209 387.29 238.915 387.659 239.407C388.033 239.899 388.584 240.146 389.313 240.146C389.938 240.146 390.578 240.011 391.234 239.742V240.747C390.733 241.007 390.102 241.137 389.341 241.137ZM396.437 233.371C396.769 233.371 397.068 233.398 397.332 233.453L397.175 234.506C396.865 234.438 396.591 234.403 396.354 234.403C395.748 234.403 395.229 234.649 394.796 235.142C394.368 235.634 394.153 236.247 394.153 236.98V241H393.019V233.508H393.955L394.085 234.896H394.14C394.418 234.408 394.753 234.032 395.145 233.768C395.536 233.503 395.967 233.371 396.437 233.371ZM399.868 241H398.733V233.508H399.868V241ZM398.638 231.478C398.638 231.218 398.701 231.029 398.829 230.91C398.957 230.787 399.116 230.726 399.308 230.726C399.49 230.726 399.647 230.787 399.779 230.91C399.911 231.033 399.978 231.222 399.978 231.478C399.978 231.733 399.911 231.924 399.779 232.052C399.647 232.175 399.49 232.236 399.308 232.236C399.116 232.236 398.957 232.175 398.829 232.052C398.701 231.924 398.638 231.733 398.638 231.478ZM405.761 241.137C405.273 241.137 404.826 241.048 404.421 240.87C404.02 240.688 403.683 240.41 403.409 240.036H403.327C403.382 240.474 403.409 240.888 403.409 241.28V244.363H402.274V233.508H403.197L403.354 234.533H403.409C403.701 234.123 404.04 233.827 404.428 233.645C404.815 233.462 405.259 233.371 405.761 233.371C406.754 233.371 407.52 233.711 408.058 234.39C408.6 235.069 408.871 236.021 408.871 237.247C408.871 238.478 408.595 239.435 408.044 240.118C407.497 240.797 406.736 241.137 405.761 241.137ZM405.597 234.335C404.831 234.335 404.277 234.547 403.936 234.971C403.594 235.395 403.418 236.069 403.409 236.994V237.247C403.409 238.3 403.585 239.054 403.936 239.51C404.286 239.961 404.849 240.187 405.624 240.187C406.271 240.187 406.777 239.924 407.142 239.4C407.511 238.876 407.695 238.154 407.695 237.233C407.695 236.299 407.511 235.584 407.142 235.087C406.777 234.586 406.262 234.335 405.597 234.335ZM413.28 240.2C413.481 240.2 413.674 240.187 413.861 240.159C414.048 240.127 414.196 240.095 414.306 240.063V240.932C414.183 240.991 414 241.039 413.759 241.075C413.522 241.116 413.308 241.137 413.116 241.137C411.667 241.137 410.942 240.373 410.942 238.847V234.39H409.869V233.843L410.942 233.371L411.421 231.771H412.077V233.508H414.251V234.39H412.077V238.799C412.077 239.25 412.184 239.596 412.398 239.838C412.613 240.079 412.907 240.2 413.28 240.2ZM421.087 241L418.243 233.508H419.46L421.073 237.951C421.438 238.99 421.652 239.665 421.716 239.975H421.771C421.821 239.733 421.978 239.234 422.242 238.478C422.511 237.716 423.11 236.06 424.04 233.508H425.257L422.413 241H421.087ZM429.625 241.137C428.518 241.137 427.643 240.799 427 240.125C426.362 239.451 426.043 238.514 426.043 237.315C426.043 236.108 426.339 235.148 426.932 234.438C427.529 233.727 428.328 233.371 429.331 233.371C430.27 233.371 431.013 233.681 431.56 234.301C432.106 234.916 432.38 235.729 432.38 236.741V237.459H427.219C427.242 238.339 427.463 239.006 427.882 239.462C428.306 239.918 428.9 240.146 429.666 240.146C430.473 240.146 431.27 239.977 432.059 239.64V240.651C431.658 240.825 431.277 240.948 430.917 241.021C430.562 241.098 430.131 241.137 429.625 241.137ZM429.317 234.321C428.716 234.321 428.235 234.517 427.875 234.909C427.52 235.301 427.31 235.843 427.246 236.536H431.163C431.163 235.821 431.004 235.274 430.685 234.896C430.366 234.513 429.91 234.321 429.317 234.321ZM437.315 241.137C436.231 241.137 435.39 240.804 434.793 240.139C434.201 239.469 433.904 238.523 433.904 237.302C433.904 236.049 434.205 235.08 434.807 234.396C435.413 233.713 436.274 233.371 437.391 233.371C437.751 233.371 438.111 233.41 438.471 233.487C438.831 233.565 439.113 233.656 439.318 233.761L438.97 234.725C438.719 234.624 438.446 234.542 438.149 234.479C437.853 234.41 437.591 234.376 437.363 234.376C435.841 234.376 435.08 235.347 435.08 237.288C435.08 238.209 435.265 238.915 435.634 239.407C436.007 239.899 436.559 240.146 437.288 240.146C437.912 240.146 438.553 240.011 439.209 239.742V240.747C438.708 241.007 438.076 241.137 437.315 241.137ZM443.413 240.2C443.614 240.2 443.807 240.187 443.994 240.159C444.181 240.127 444.329 240.095 444.438 240.063V240.932C444.315 240.991 444.133 241.039 443.892 241.075C443.655 241.116 443.44 241.137 443.249 241.137C441.8 241.137 441.075 240.373 441.075 238.847V234.39H440.002V233.843L441.075 233.371L441.554 231.771H442.21V233.508H444.384V234.39H442.21V238.799C442.21 239.25 442.317 239.596 442.531 239.838C442.745 240.079 443.039 240.2 443.413 240.2ZM452.409 237.247C452.409 238.468 452.102 239.423 451.486 240.111C450.871 240.795 450.021 241.137 448.937 241.137C448.267 241.137 447.672 240.979 447.152 240.665C446.633 240.351 446.232 239.899 445.949 239.312C445.667 238.724 445.525 238.035 445.525 237.247C445.525 236.026 445.831 235.076 446.441 234.396C447.052 233.713 447.9 233.371 448.984 233.371C450.033 233.371 450.864 233.72 451.479 234.417C452.099 235.114 452.409 236.058 452.409 237.247ZM446.701 237.247C446.701 238.204 446.893 238.933 447.275 239.435C447.658 239.936 448.221 240.187 448.964 240.187C449.707 240.187 450.27 239.938 450.652 239.441C451.04 238.94 451.233 238.209 451.233 237.247C451.233 236.295 451.04 235.572 450.652 235.08C450.27 234.583 449.702 234.335 448.95 234.335C448.207 234.335 447.647 234.579 447.269 235.066C446.89 235.554 446.701 236.281 446.701 237.247ZM457.823 233.371C458.156 233.371 458.454 233.398 458.719 233.453L458.562 234.506C458.252 234.438 457.978 234.403 457.741 234.403C457.135 234.403 456.616 234.649 456.183 235.142C455.754 235.634 455.54 236.247 455.54 236.98V241H454.405V233.508H455.342L455.472 234.896H455.526C455.804 234.408 456.139 234.032 456.531 233.768C456.923 233.503 457.354 233.371 457.823 233.371ZM473.307 241V236.126C473.307 235.529 473.179 235.082 472.924 234.786C472.669 234.485 472.272 234.335 471.734 234.335C471.028 234.335 470.506 234.538 470.169 234.943C469.832 235.349 469.663 235.973 469.663 236.816V241H468.528V236.126C468.528 235.529 468.401 235.082 468.146 234.786C467.89 234.485 467.492 234.335 466.949 234.335C466.238 234.335 465.716 234.549 465.384 234.978C465.056 235.401 464.892 236.099 464.892 237.069V241H463.757V233.508H464.68L464.864 234.533H464.919C465.133 234.169 465.434 233.884 465.821 233.679C466.213 233.474 466.651 233.371 467.134 233.371C468.305 233.371 469.071 233.795 469.431 234.643H469.485C469.709 234.251 470.032 233.941 470.456 233.713C470.88 233.485 471.363 233.371 471.905 233.371C472.753 233.371 473.386 233.59 473.806 234.027C474.229 234.46 474.441 235.155 474.441 236.112V241H473.307ZM481.394 241L481.168 239.934H481.113C480.74 240.403 480.366 240.722 479.992 240.891C479.623 241.055 479.16 241.137 478.604 241.137C477.862 241.137 477.278 240.945 476.854 240.562C476.435 240.18 476.226 239.635 476.226 238.929C476.226 237.416 477.436 236.623 479.855 236.55L481.127 236.509V236.044C481.127 235.456 480.999 235.023 480.744 234.745C480.493 234.463 480.09 234.321 479.534 234.321C478.91 234.321 478.203 234.513 477.415 234.896L477.066 234.027C477.436 233.827 477.839 233.67 478.276 233.556C478.718 233.442 479.16 233.385 479.603 233.385C480.496 233.385 481.157 233.583 481.585 233.979C482.018 234.376 482.234 235.012 482.234 235.887V241H481.394ZM478.83 240.2C479.536 240.2 480.09 240.007 480.491 239.619C480.897 239.232 481.1 238.689 481.1 237.992V237.315L479.965 237.363C479.062 237.395 478.411 237.536 478.01 237.787C477.613 238.033 477.415 238.418 477.415 238.942C477.415 239.353 477.538 239.665 477.784 239.879C478.035 240.093 478.383 240.2 478.83 240.2ZM486.999 240.2C487.2 240.2 487.393 240.187 487.58 240.159C487.767 240.127 487.915 240.095 488.024 240.063V240.932C487.901 240.991 487.719 241.039 487.478 241.075C487.241 241.116 487.026 241.137 486.835 241.137C485.386 241.137 484.661 240.373 484.661 238.847V234.39H483.588V233.843L484.661 233.371L485.14 231.771H485.796V233.508H487.97V234.39H485.796V238.799C485.796 239.25 485.903 239.596 486.117 239.838C486.331 240.079 486.625 240.2 486.999 240.2ZM494.655 241V236.153C494.655 235.543 494.516 235.087 494.238 234.786C493.96 234.485 493.525 234.335 492.933 234.335C492.144 234.335 491.568 234.549 491.203 234.978C490.843 235.406 490.663 236.108 490.663 237.083V241H489.528V230.363H490.663V233.583C490.663 233.97 490.645 234.292 490.608 234.547H490.677C490.9 234.187 491.217 233.904 491.627 233.699C492.042 233.49 492.513 233.385 493.042 233.385C493.958 233.385 494.644 233.604 495.1 234.041C495.56 234.474 495.79 235.164 495.79 236.112V241H494.655ZM502.899 241H501.765V230.363H502.899V241ZM506.44 241H505.306V233.508H506.44V241ZM505.21 231.478C505.21 231.218 505.274 231.029 505.401 230.91C505.529 230.787 505.688 230.726 505.88 230.726C506.062 230.726 506.219 230.787 506.352 230.91C506.484 231.033 506.55 231.222 506.55 231.478C506.55 231.733 506.484 231.924 506.352 232.052C506.219 232.175 506.062 232.236 505.88 232.236C505.688 232.236 505.529 232.175 505.401 232.052C505.274 231.924 505.21 231.733 505.21 231.478ZM512.333 233.385C513.317 233.385 514.081 233.722 514.623 234.396C515.17 235.066 515.443 236.017 515.443 237.247C515.443 238.478 515.168 239.435 514.616 240.118C514.069 240.797 513.308 241.137 512.333 241.137C511.845 241.137 511.399 241.048 510.993 240.87C510.592 240.688 510.255 240.41 509.981 240.036H509.899L509.66 241H508.847V230.363H509.981V232.947C509.981 233.526 509.963 234.046 509.927 234.506H509.981C510.51 233.758 511.294 233.385 512.333 233.385ZM512.169 234.335C511.394 234.335 510.836 234.558 510.494 235.005C510.152 235.447 509.981 236.194 509.981 237.247C509.981 238.3 510.157 239.054 510.508 239.51C510.859 239.961 511.422 240.187 512.196 240.187C512.894 240.187 513.413 239.934 513.755 239.428C514.097 238.917 514.268 238.186 514.268 237.233C514.268 236.258 514.097 235.531 513.755 235.053C513.413 234.574 512.884 234.335 512.169 234.335ZM520.851 233.371C521.183 233.371 521.482 233.398 521.746 233.453L521.589 234.506C521.279 234.438 521.006 234.403 520.769 234.403C520.162 234.403 519.643 234.649 519.21 235.142C518.782 235.634 518.567 236.247 518.567 236.98V241H517.433V233.508H518.369L518.499 234.896H518.554C518.832 234.408 519.167 234.032 519.559 233.768C519.951 233.503 520.381 233.371 520.851 233.371ZM527.755 241L527.529 239.934H527.475C527.101 240.403 526.727 240.722 526.354 240.891C525.984 241.055 525.522 241.137 524.966 241.137C524.223 241.137 523.64 240.945 523.216 240.562C522.797 240.18 522.587 239.635 522.587 238.929C522.587 237.416 523.797 236.623 526.217 236.55L527.488 236.509V236.044C527.488 235.456 527.361 235.023 527.105 234.745C526.855 234.463 526.451 234.321 525.896 234.321C525.271 234.321 524.565 234.513 523.776 234.896L523.428 234.027C523.797 233.827 524.2 233.67 524.638 233.556C525.08 233.442 525.522 233.385 525.964 233.385C526.857 233.385 527.518 233.583 527.946 233.979C528.379 234.376 528.596 235.012 528.596 235.887V241H527.755ZM525.191 240.2C525.898 240.2 526.451 240.007 526.853 239.619C527.258 239.232 527.461 238.689 527.461 237.992V237.315L526.326 237.363C525.424 237.395 524.772 237.536 524.371 237.787C523.975 238.033 523.776 238.418 523.776 238.942C523.776 239.353 523.899 239.665 524.146 239.879C524.396 240.093 524.745 240.2 525.191 240.2ZM534.358 233.371C534.691 233.371 534.99 233.398 535.254 233.453L535.097 234.506C534.787 234.438 534.513 234.403 534.276 234.403C533.67 234.403 533.151 234.649 532.718 235.142C532.289 235.634 532.075 236.247 532.075 236.98V241H530.94V233.508H531.877L532.007 234.896H532.062C532.34 234.408 532.674 234.032 533.066 233.768C533.458 233.503 533.889 233.371 534.358 233.371ZM535.466 233.508H536.683L538.323 237.78C538.683 238.756 538.907 239.46 538.993 239.893H539.048C539.107 239.66 539.23 239.264 539.417 238.703C539.608 238.138 540.228 236.406 541.276 233.508H542.493L539.273 242.039C538.954 242.882 538.581 243.479 538.152 243.83C537.729 244.186 537.207 244.363 536.587 244.363C536.241 244.363 535.899 244.325 535.562 244.247V243.338C535.812 243.393 536.092 243.42 536.402 243.42C537.182 243.42 537.738 242.982 538.07 242.107L538.487 241.041L535.466 233.508Z" fill="white"/>
<path d="M447.965 102.373C448.171 101.288 447.459 100.241 446.373 100.035L428.69 96.6739C427.605 96.4676 426.558 97.1801 426.352 98.2652C426.146 99.3504 426.858 100.397 427.943 100.604L443.662 103.591L440.674 119.31C440.468 120.395 441.18 121.442 442.265 121.648C443.35 121.854 444.397 121.142 444.604 120.057L447.965 102.373ZM375.125 152.653L447.125 103.653L444.875 100.347L372.875 149.347L375.125 152.653Z" fill="white"/>
<rect x="370" y="69" width="8" height="66" rx="2" fill="#3CFF97"/>
<rect x="390" y="157" width="8" height="66" rx="2" transform="rotate(-90 390 157)" fill="#D30151"/>
<circle cx="374" cy="151" r="17" fill="#181818" stroke="white" stroke-width="4"/>
</svg>
